<svg width="24" height="24" viewBox="0 0 24 24" fill="none" xmlns="http://www.w3.org/2000/svg">
<rect width="24" height="24" rx="4" fill="white"/>
<path d="M0 0V24H24V0H0ZM15.185 3C15.391 4.871 13.72 6.823 11.979 6.687C11.764 5.053 13.301 3.076 15.185 3V3ZM14.958 18.979C13.886 19 13.541 18.344 12.316 18.344C11.091 18.344 10.709 18.96 9.695 19C7.98 19.065 5.334 15.114 5.334 11.669C5.334 8.504 7.539 6.935 9.466 6.907C10.499 6.888 11.475 7.603 12.106 7.603C12.739 7.603 13.924 6.743 15.17 6.87C15.691 6.891 17.155 7.08 18.096 8.455C15.601 10.082 15.99 13.487 18.667 14.739C18.143 16.258 16.574 18.95 14.958 18.979V18.979Z" fill="#C2C2C2"/>
</svg>
