<svg width="24" height="24" viewBox="0 0 24 24" fill="none" xmlns="http://www.w3.org/2000/svg">
<rect width="24" height="24" rx="4" fill="#040404"/>
<path fill-rule="evenodd" clip-rule="evenodd" d="M18.8068 2.99999H5.47894C4.39867 2.99999 4 3.37972 4 4.40913V16.8306C4 16.9471 4.00493 17.0553 4.01574 17.1555C4.04033 17.3802 4.04496 17.598 4.26436 17.8459C4.2858 17.8702 4.5098 18.0289 4.5098 18.0289C4.63029 18.0852 4.71256 18.1267 4.84845 18.1787L11.4113 20.7977C11.7519 20.9464 11.8944 21.0044 12.1419 20.9997V20.9998C12.1422 20.9998 12.1425 20.9998 12.1428 20.9998C12.1432 20.9998 12.1435 20.9998 12.1438 20.9998V20.9997C12.3913 21.0044 12.5337 20.9464 12.8745 20.7977L19.4372 18.1787C19.5731 18.1267 19.6554 18.0852 19.7759 18.0289C19.7759 18.0289 19.9999 17.8702 20.0213 17.8459C20.2407 17.598 20.2453 17.3802 20.2699 17.1555C20.2807 17.0553 20.2857 16.9471 20.2857 16.8306V4.40913C20.2857 3.37972 19.887 2.99999 18.8068 2.99999Z" fill="#2F2D2E"/>
<path d="M17.9141 15.4881L17.911 15.5168L17.9081 15.5483L17.902 15.5769L17.893 15.6056L17.8872 15.6314L17.8781 15.66L17.8661 15.6858L17.8541 15.7088L17.8422 15.7345L17.8272 15.7574L17.8122 15.7804L17.7943 15.8033L17.7792 15.8262L17.7614 15.8462L17.7403 15.8663L17.7224 15.8835L17.6984 15.9036L17.6775 15.9208L17.6534 15.938L17.6295 15.9521L17.6056 15.9693L17.5786 15.9836L17.5517 15.9951L17.5248 16.0094L17.4947 16.0209L17.4648 16.0323L17.4349 16.0409L17.405 16.0495L17.3779 16.0581L17.348 16.0638L17.3211 16.0696L17.2942 16.0753L17.2641 16.081L17.2342 16.0839L17.2073 16.0868L17.1772 16.0896L17.1444 16.0925L17.1144 16.0954H17.0845H17.0516H17.0185H16.9886L16.9587 16.0925H16.9258L16.8959 16.0896L16.8658 16.0868L16.8329 16.0839L16.803 16.0782L16.7731 16.0753L16.743 16.0696L16.7131 16.0638L16.6832 16.0581L16.6533 16.0524L16.6233 16.0438L16.5963 16.0381L16.5664 16.0295L16.5365 16.0209L16.5095 16.0094L16.4796 16.0008L16.4527 15.9922L16.4227 15.9808L16.3957 15.9693L16.3688 15.9578L16.3419 15.9437L16.3148 15.9322L16.2879 15.9179L16.264 15.9036L16.237 15.8892L16.2131 15.8749L16.189 15.8606L16.1651 15.8434L16.1412 15.8262L16.1172 15.809L16.0933 15.7918L16.0722 15.7746L16.0483 15.7546L16.0664 15.7317L16.0872 15.7116L16.1053 15.6887L16.1262 15.6657L16.1443 15.6457L16.1621 15.6228L16.1832 15.5998L16.201 15.5798L16.2221 15.5569L16.24 15.5368L16.261 15.5139L16.2789 15.491L16.297 15.4709L16.3178 15.448L16.3359 15.4251L16.3567 15.405L16.3748 15.3821L16.3987 15.3993L16.4256 15.4165L16.4497 15.4337L16.4766 15.4509L16.5006 15.4652L16.5275 15.4824L16.5514 15.4967L16.5785 15.5082L16.6024 15.5225L16.6293 15.534L16.6563 15.5454L16.6832 15.5569L16.7102 15.5655L16.7372 15.5769L16.7671 15.5855L16.797 15.5941L16.8239 15.6027L16.854 15.6085L16.8839 15.6142L16.9138 15.6199L16.9467 15.6228L16.9768 15.6285H17.0067L17.0396 15.6314H17.0695H17.1054L17.1383 15.6285L17.1684 15.6228L17.1953 15.617L17.2222 15.6113L17.2463 15.6027L17.2672 15.5913L17.2912 15.5741L17.3091 15.554L17.3211 15.5311L17.3302 15.5053L17.3331 15.4766V15.4709L17.3302 15.4365L17.3181 15.4079L17.3031 15.3878L17.2822 15.3706L17.2581 15.3534L17.2342 15.342L17.2073 15.3305L17.1772 15.3191L17.1413 15.3048L17.1204 15.299L17.0966 15.2933L17.0695 15.2847L17.0426 15.2789L17.0127 15.2703L16.9826 15.2646L16.9497 15.256L16.9198 15.2503L16.8869 15.2417L16.857 15.236L16.8269 15.2274L16.797 15.2216L16.7671 15.213L16.74 15.2045L16.7102 15.1987L16.6832 15.1901L16.6563 15.1815L16.6293 15.1729L16.5963 15.1615L16.5664 15.15L16.5365 15.1386L16.5065 15.1271L16.4796 15.1128L16.4497 15.0984L16.4256 15.0841L16.3987 15.0698L16.3748 15.0526L16.3507 15.0383L16.3299 15.0211L16.3088 15.001L16.2879 14.981L16.2699 14.9609L16.252 14.9409L16.237 14.9208L16.2221 14.8979L16.2071 14.8721L16.195 14.8522L16.186 14.8293L16.1772 14.8035L16.1681 14.7806L16.1621 14.7519L16.1561 14.7261L16.1531 14.6975L16.1501 14.6688L16.1471 14.6373V14.6058V14.6001V14.5714L16.1501 14.5428L16.1531 14.517L16.1561 14.4883L16.1621 14.4626L16.1681 14.4368L16.1772 14.411L16.1832 14.3852L16.195 14.3594L16.2071 14.3336L16.2191 14.3079L16.234 14.282L16.249 14.2563L16.2669 14.2333L16.2849 14.2104L16.3058 14.1875L16.3268 14.1675L16.3478 14.1445L16.3718 14.1244L16.3927 14.1101L16.4167 14.0929L16.4407 14.0757L16.4645 14.0614L16.4916 14.0471L16.5185 14.0356L16.5454 14.0213L16.5725 14.0099L16.6024 14.0013L16.6322 13.9898L16.6593 13.9812L16.6832 13.9755L16.7102 13.9697L16.7372 13.964L16.7671 13.9583L16.794 13.9525L16.8239 13.9497L16.854 13.9468L16.8839 13.9439L16.9138 13.9411H16.9437H16.9768H17.0097H17.0426L17.0755 13.9439L17.1084 13.9468H17.1383L17.1714 13.9497L17.2013 13.9554L17.2342 13.9583L17.2641 13.964L17.2912 13.9697L17.3211 13.9755L17.351 13.9812L17.3779 13.9869L17.408 13.9955L17.4349 14.0041L17.4618 14.0099L17.4919 14.0213L17.5188 14.0299L17.5457 14.0414L17.5726 14.0528L17.6026 14.0643L17.6295 14.0786L17.6534 14.0901L17.6805 14.1044L17.7074 14.1187L17.7313 14.1331L17.7583 14.1503L17.7823 14.1646L17.8063 14.1818L17.8302 14.199L17.8541 14.2161L17.8362 14.2391L17.8212 14.262L17.8033 14.2849L17.7853 14.3079L17.7674 14.3336L17.7523 14.3565L17.7343 14.3795L17.7164 14.4024L17.7014 14.4253L17.6835 14.4483L17.6655 14.4712L17.6504 14.4941L17.6326 14.5199L17.6145 14.5428L17.5966 14.5657L17.5816 14.5886L17.5637 14.6115L17.5396 14.5944L17.5128 14.58L17.4888 14.5657L17.4648 14.5485L17.4379 14.5371L17.4138 14.5227L17.3869 14.5112L17.3631 14.4998L17.336 14.4883L17.3121 14.4769L17.2852 14.4683L17.2612 14.4568L17.2282 14.4483L17.1983 14.4396L17.1684 14.4311L17.1383 14.4253L17.1084 14.4196L17.0785 14.4138L17.0486 14.411L17.0185 14.4081L16.9917 14.4052H16.9617H16.9258L16.8929 14.411L16.8628 14.4167L16.8359 14.4224L16.8121 14.4339L16.791 14.4453L16.7641 14.4683L16.746 14.4941L16.7342 14.5199L16.7312 14.5485V14.5543L16.7342 14.5915L16.749 14.623L16.7611 14.6402L16.782 14.6603L16.809 14.6746L16.8329 14.6889L16.8628 14.7004L16.8959 14.7118L16.9318 14.7233L16.9557 14.729L16.9796 14.7376L17.0067 14.7433L17.0336 14.7519L17.0635 14.7577L17.0966 14.7663L17.1295 14.7748L17.1624 14.7835L17.1953 14.7892L17.2252 14.7978L17.2581 14.8064L17.2882 14.8121L17.3181 14.8207L17.348 14.8293L17.3749 14.8379L17.405 14.8465L17.4319 14.8551L17.4588 14.8637L17.4919 14.875L17.5218 14.8893L17.5517 14.9008L17.5816 14.9151L17.6087 14.9294L17.6356 14.9437L17.6594 14.9581L17.6835 14.9752L17.7074 14.9896L17.7313 15.0096L17.7554 15.0297L17.7762 15.0526L17.7973 15.0727L17.8152 15.0956L17.8332 15.1214L17.8481 15.1443L17.8631 15.1701L17.8751 15.193L17.8842 15.2188L17.893 15.2446L17.899 15.2703L17.905 15.299L17.911 15.3277L17.9141 15.3563L17.9171 15.3878V15.4193V15.4251V15.4566L17.9141 15.4881ZM15.8139 16.061H15.7838H15.7539H15.724H15.6941H15.664H15.6341H15.6042H15.5743H15.5412H15.5113H15.4814H15.4515H15.4214H15.3915H15.3616H15.3317H15.3016H15.2717H15.2418H15.2119H15.182H15.1519H15.122H15.0921H15.0622H15.0321H15.0022H14.9723H14.9394H14.9093H14.8794H14.8495H14.8196H14.7896H14.7596H14.7297H14.6998H14.6697H14.6398H14.6099H14.58H14.5499H14.5201H14.4901H14.4602H14.4302H14.4002H14.3673H14.3374H14.3075H14.2774H14.2475H14.2176H14.1878H14.1577H14.1278H14.0979V16.0323V16.0037V15.975V15.9465V15.9179V15.8892V15.8606V15.832V15.8033V15.7746V15.746V15.7173V15.6887V15.66V15.6314V15.6027V15.5741V15.5454V15.5196V15.491V15.4623V15.4337V15.405V15.3764V15.3477V15.3191V15.2904V15.2618V15.2331V15.2045V15.1758V15.1471V15.1185V15.0898V15.0612V15.0325V15.0039V14.9752V14.9466V14.9179V14.8893V14.8608V14.8322V14.8035V14.7748V14.7462V14.7176V14.6889V14.6603V14.6316V14.6029V14.5743V14.5456V14.517V14.4912V14.4626V14.4339V14.4052V14.3766V14.3479V14.3193V14.2906V14.262V14.2333V14.2047V14.176V14.1474V14.1187V14.0901V14.0614V14.0328V14.0041V13.9755H14.1278H14.1577H14.1878H14.2176H14.2475H14.2774H14.3075H14.3374H14.3673H14.3973H14.4273H14.4573H14.4871H14.517H14.5441H14.574H14.6039H14.6338H14.6639H14.6938H14.7237H14.7536H14.7837H14.8136H14.8435H14.8734H14.9035H14.9334H14.9633H14.9932H15.0233H15.0532H15.0831H15.113H15.1429H15.173H15.2029H15.2328H15.2627H15.2928H15.3227H15.3526H15.3825H15.4096H15.4395H15.4694H15.4993H15.5294H15.5593H15.5892H15.6191H15.6491H15.679H15.7089H15.7389H15.7689H15.7989H15.8288V14.0041V14.0299V14.0586V14.0872V14.1159V14.1416V14.1703V14.199V14.2247V14.2534V14.282V14.3079V14.3365V14.3651V14.3938V14.4196V14.4483H15.7989H15.7689H15.7389H15.7089H15.679H15.6491H15.6221H15.5922H15.5623H15.5324H15.5023H15.4724H15.4425H15.4126H15.3825H15.3526H15.3227H15.2928H15.2627H15.2358H15.2059H15.176H15.1459H15.116H15.0861H15.0562H15.0261H14.9962H14.9663H14.9364H14.9063H14.8764H14.8495H14.8196H14.7896H14.7596H14.7297H14.6998H14.6697V14.4769V14.5055V14.5342V14.5628V14.5915V14.6173V14.6459V14.6746V14.7032V14.7319V14.7605V14.7892H14.6998H14.7297H14.7596H14.7896H14.8196H14.8495H14.8794H14.9093H14.9364H14.9663H14.9962H15.0261H15.0562H15.0861H15.116H15.1459H15.176H15.2059H15.2358H15.2657H15.2958H15.3257H15.3556H15.3855H15.4156H15.4455H15.4724H15.5023H15.5324H15.5623H15.5922H15.6221H15.6521H15.6821H15.712V14.8178V14.8436V14.8721V14.9008V14.9265V14.9552V14.9838V15.0096V15.0383V15.0669V15.0956V15.1214V15.15V15.1787V15.2045V15.2331H15.6821H15.6521H15.6221H15.5922H15.5623H15.5324H15.5023H15.4724H15.4455H15.4156H15.3855H15.3556H15.3257H15.2958H15.2657H15.2358H15.2059H15.176H15.1459H15.116H15.0861H15.0562H15.0261H14.9962H14.9663H14.9364H14.9093H14.8794H14.8495H14.8196H14.7896H14.7596H14.7297H14.6998H14.6697V15.2618V15.2933V15.3219V15.3506V15.3821V15.4108V15.4394V15.4709V15.4996V15.5282V15.5597V15.5884H14.6998H14.7297H14.7596H14.7896H14.8196H14.8495H14.8794H14.9093H14.9394H14.9723H15.0022H15.0321H15.0622H15.0921H15.122H15.1519H15.182H15.2119H15.2418H15.2717H15.3016H15.3317H15.3616H15.3915H15.4214H15.4515H15.4814H15.5113H15.5412H15.5743H15.6042H15.6341H15.664H15.6941H15.724H15.7539H15.7838H15.8139H15.8438V15.617V15.6428V15.6715V15.7001V15.7288V15.7546V15.7832V15.8119V15.8377V15.8663V15.8949V15.9208V15.9492V15.9779V16.0065V16.0323V16.061H15.8139ZM13.6257 16.061H13.5958H13.5659H13.5329H13.503H13.473H13.4431H13.4131H13.3832H13.3502H13.3203H13.2904H13.2604H13.2305H13.2006H13.1676H13.1376H13.1077H13.0777V16.0323V16.0037V15.975V15.9464V15.9175V15.8889V15.8602V15.8316V15.8029V15.7743V15.7456V15.7168V15.6882V15.6595V15.6309V15.6022V15.5734V15.5447V15.5161V15.4874V15.4588V15.4301V15.4013V15.3727V15.344V15.3153V15.2867V15.258V15.2292V15.2006V15.1719V15.1433V15.1146V15.086V15.0572V15.0285V14.9999V14.9712V14.9426V14.9137V14.8851V14.8564V14.8278L13.0627 14.8507L13.0448 14.8767L13.0298 14.8996L13.0119 14.9225L12.9969 14.9483L12.9788 14.9712L12.964 14.9941L12.9489 15.0201L12.9311 15.043L12.916 15.0659L12.898 15.0889L12.8831 15.1148L12.8651 15.1377L12.8502 15.1606L12.8351 15.1864L12.8171 15.2095L12.8022 15.2324L12.7842 15.2582L12.7693 15.2812L12.7513 15.3041L12.7364 15.33L12.7214 15.353L12.7033 15.3759L12.6885 15.4017L12.6704 15.4247L12.6556 15.4477L12.6375 15.4706L12.6224 15.4964L12.6076 15.5194L12.5896 15.5424L12.5747 15.5682L12.5567 15.5911L12.5416 15.614L12.5237 15.64L12.5087 15.6629H12.4968L12.4788 15.6371L12.4637 15.614L12.4459 15.5882L12.4308 15.5653L12.4129 15.5395L12.3979 15.5164L12.3801 15.4906L12.365 15.4677L12.3469 15.4419L12.3321 15.419L12.314 15.393L12.2992 15.3701L12.2811 15.3443L12.2661 15.3214L12.2482 15.2955L12.2332 15.2726L12.2153 15.2468L12.1973 15.2238L12.1822 15.1979L12.1644 15.175L12.1493 15.1492L12.1314 15.1263L12.1164 15.1003L12.0985 15.0774L12.0835 15.0516L12.0654 15.0287L12.0506 15.0029L12.0325 14.9798L12.0177 14.954L11.9996 14.9311L11.9846 14.9053L11.9667 14.8824L11.9516 14.8564L11.9338 14.8335V14.8621V14.8908V14.9195V14.9483V14.9769V15.0056V15.0342V15.0629V15.0917V15.1204V15.1462V15.1748V15.2035V15.2321V15.2609V15.2896V15.3182V15.3469V15.3755V15.4042V15.433V15.4617V15.4903V15.519V15.5476V15.5763V15.6051V15.6337V15.6624V15.691V15.7197V15.7485V15.7743V15.8029V15.8316V15.8602V15.8889V15.9175V15.9464V15.975V16.0037V16.0323V16.061H11.9039H11.8738H11.8439H11.814H11.7841H11.754H11.7241H11.6942H11.6643H11.6342H11.6043H11.5744H11.5445H11.5144H11.4845H11.4546H11.4247H11.3946H11.3647V16.0323V16.0037V15.975V15.9465V15.9179V15.8892V15.8606V15.832V15.8033V15.7746V15.746V15.7173V15.6887V15.66V15.6314V15.6027V15.5741V15.5454V15.5196V15.491V15.4623V15.4337V15.405V15.3764V15.3477V15.3191V15.2904V15.2618V15.2331V15.2045V15.1758V15.1471V15.1185V15.0898V15.0612V15.0325V15.0039V14.9752V14.9466V14.9179V14.8893V14.8608V14.8322V14.8035V14.7748V14.7462V14.7176V14.6889V14.6603V14.6316V14.6029V14.5743V14.5456V14.517V14.4912V14.4626V14.4339V14.4052V14.3766V14.3479V14.3193V14.2906V14.262V14.2333V14.2047V14.176V14.1474V14.1187V14.0901V14.0614V14.0328V14.0041V13.9755H11.3946H11.4247H11.4516H11.4815H11.5114H11.5415H11.5684H11.5983H11.6284H11.6583H11.6852H11.7151H11.7452H11.7751H11.8019H11.8318H11.8619H11.8919H11.9187H11.9486H11.9787L11.9936 13.9984L12.0086 14.0242L12.0265 14.0469L12.0415 14.0727L12.0566 14.0956L12.0714 14.1214L12.0865 14.1442L12.1044 14.17L12.1194 14.1929L12.1345 14.2158L12.1493 14.2414L12.1644 14.2644L12.1822 14.2901L12.1973 14.3131L12.2123 14.3387L12.2272 14.3616L12.2452 14.3845L12.2603 14.4102L12.2751 14.433L12.2901 14.4588L12.305 14.4818L12.3231 14.5074L12.3381 14.5303L12.353 14.5561L12.368 14.5788L12.3829 14.6017L12.4009 14.6275L12.416 14.6505L12.4308 14.6763L12.4459 14.699L12.4607 14.7248L12.4788 14.7477L12.4938 14.7733L12.5087 14.7963L12.5237 14.7733L12.5388 14.7477L12.5567 14.7248L12.5716 14.699L12.5865 14.6763L12.6016 14.6505L12.6195 14.6275L12.6345 14.6017L12.6496 14.5788L12.6644 14.5561L12.6824 14.5303L12.6973 14.5074L12.7124 14.4818L12.7274 14.4588L12.7453 14.433L12.7603 14.4102L12.7753 14.3845L12.7902 14.3616L12.8053 14.3387L12.8231 14.3131L12.8382 14.2901L12.8532 14.2644L12.8681 14.2414L12.8861 14.2158L12.901 14.1929L12.916 14.17L12.9311 14.1442L12.9489 14.1214L12.964 14.0956L12.9788 14.0727L12.9939 14.0469L13.0119 14.0242L13.0268 13.9984L13.0418 13.9755H13.0717H13.1016H13.1287H13.1586H13.1885H13.2184H13.2455H13.2754H13.3053H13.3352H13.3623H13.3922H13.4221H13.452H13.4791H13.509H13.5389H13.5688H13.5958H13.6257H13.6556V14.0041V14.0328V14.0614V14.0901V14.1187V14.1474V14.176V14.2047V14.2333V14.262V14.2906V14.3193V14.3479V14.3766V14.4052V14.4339V14.4626V14.4912V14.517V14.5456V14.5743V14.6029V14.6316V14.6603V14.6889V14.7176V14.7462V14.7748V14.8035V14.8322V14.8608V14.8893V14.9179V14.9466V14.9752V15.0039V15.0325V15.0612V15.0898V15.1185V15.1471V15.1758V15.2045V15.2331V15.2618V15.2904V15.3191V15.3477V15.3764V15.405V15.4337V15.4623V15.491V15.5196V15.5454V15.5741V15.6027V15.6314V15.66V15.6887V15.7173V15.746V15.7746V15.8033V15.832V15.8606V15.8892V15.9179V15.9465V15.975V16.0037V16.0323V16.061H13.6257ZM10.151 15.2016L10.142 15.1757L10.1302 15.147L10.1181 15.1212L10.1091 15.0952L10.0973 15.0695L10.0852 15.0408L10.0762 15.0148L10.0641 14.9891L10.0523 14.9633L10.0433 14.9373L10.0312 14.9087L10.0224 14.8829L10.0104 14.8569L9.99831 14.8311L9.98932 14.8054L9.97744 14.7766L9.96543 14.7507L9.95641 14.725L9.94436 14.699L9.93252 14.6704L9.92349 14.6444L9.91145 14.6186L9.8996 14.6444L9.89061 14.6704L9.87856 14.699L9.86652 14.725L9.85766 14.7507L9.84565 14.7766L9.8336 14.8054L9.82176 14.8311L9.8127 14.8569L9.80069 14.8829L9.78864 14.9087L9.77978 14.9373L9.76777 14.9633L9.75573 14.9891L9.74674 15.0148L9.73486 15.0408L9.72281 15.0695L9.7108 15.0952L9.70198 15.1212L9.68993 15.147L9.67789 15.1757L9.66886 15.2016L9.65702 15.2274H9.68691H9.71681H9.74674H9.7768H9.80669H9.83659H9.86652H9.89662H9.92349H9.95339H9.98348H10.0134H10.0433H10.0732H10.1031H10.1332H10.1631L10.151 15.2016ZM11.0915 16.061H11.0615H11.0345H11.0047H10.9746H10.9447H10.9147H10.8879H10.8578H10.8279H10.798H10.7681H10.738H10.7111H10.6812H10.6513H10.6212H10.5913H10.5644H10.5345H10.5044L10.4925 16.0352L10.4835 16.0094L10.4715 15.9836L10.4595 15.955L10.4506 15.9293L10.4386 15.9036L10.4265 15.8778L10.4177 15.852L10.4057 15.8262L10.3936 15.8004L10.3846 15.7746L10.3728 15.746L10.3607 15.7202L10.3517 15.6944L10.3396 15.6686H10.3098H10.2799H10.25H10.2201H10.193H10.1631H10.1332H10.1031H10.0732H10.0433H10.0134H9.98348H9.95339H9.92349H9.89662H9.86652H9.83659H9.80669H9.7768H9.74674H9.71681H9.68691H9.65702H9.62712H9.60001H9.57015H9.54022H9.51012H9.48023L9.46838 15.6944L9.45936 15.7202L9.44731 15.746L9.4353 15.7746L9.42644 15.8004L9.41443 15.8262L9.40238 15.852L9.39336 15.8778L9.38151 15.9036L9.36947 15.9293L9.36044 15.955L9.34856 15.9836L9.33655 16.0094L9.32753 16.0352L9.31548 16.061H9.28558H9.25569H9.22579H9.1957H9.1658H9.13289H9.10299H9.07306H9.043H9.0131H8.98321H8.95328H8.92318H8.89332H8.86342H8.83051H8.80041H8.77052H8.74059H8.71069L8.72254 16.0352L8.73458 16.0094L8.74659 15.9836L8.75847 15.955L8.7675 15.9293L8.77954 15.9036L8.79155 15.8778L8.8034 15.852L8.81544 15.8262L8.82749 15.7975L8.83933 15.7717L8.85138 15.746L8.86037 15.7202L8.87242 15.6944L8.88426 15.6686L8.89631 15.64L8.90832 15.6142L8.9202 15.5884L8.93224 15.5626L8.94425 15.5368L8.95328 15.511L8.96512 15.4824L8.97717 15.4566L8.98921 15.4308L9.00106 15.405L9.0131 15.3792L9.02515 15.3534L9.03699 15.3248L9.04602 15.299L9.05806 15.2732L9.07008 15.2474L9.08195 15.2216L9.09396 15.1959L9.10598 15.1672L9.11785 15.1414L9.12987 15.1156L9.13889 15.0898L9.15094 15.0641L9.16278 15.0383L9.17483 15.0096L9.18687 14.9838L9.19872 14.9581L9.21073 14.9323L9.22277 14.9065L9.2318 14.8807L9.24368 14.8551L9.25569 14.8264L9.2677 14.8007L9.27958 14.7748L9.29159 14.749L9.30364 14.7233L9.31548 14.6975L9.32451 14.6688L9.33655 14.6431L9.34856 14.6173L9.36044 14.5915L9.37249 14.5657L9.3845 14.5399L9.39638 14.5112L9.40839 14.4855L9.41741 14.4597L9.42943 14.4339L9.4413 14.4081L9.45332 14.3823L9.46536 14.3537L9.47721 14.3279L9.48925 14.3021L9.5013 14.2763L9.51012 14.2506L9.52217 14.2247L9.53421 14.1961L9.54626 14.1703L9.5581 14.1445L9.57015 14.1187L9.58216 14.0929L9.594 14.0672L9.60306 14.0385L9.61507 14.0127L9.62712 13.9869L9.63896 13.9611H9.66886H9.69594H9.72583H9.75573H9.78582H9.8127H9.8426H9.87252H9.90262H9.92953H9.95939H9.98932H10.0194H10.0463H10.0762H10.1061H10.1362H10.1631H10.193L10.205 13.9869L10.217 14.0127L10.2289 14.0385L10.2409 14.0672L10.25 14.0929L10.2618 14.1187L10.2739 14.1445L10.2859 14.1703L10.2979 14.1961L10.3098 14.2247L10.3218 14.2506L10.3338 14.2763L10.3427 14.3021L10.3547 14.3279L10.3668 14.3537L10.3788 14.3823L10.3906 14.4081L10.4027 14.4339L10.4147 14.4597L10.4265 14.4855L10.4356 14.5112L10.4476 14.5399L10.4595 14.5657L10.4715 14.5915L10.4835 14.6173L10.4956 14.6431L10.5074 14.6688L10.5194 14.6975L10.5285 14.7233L10.5403 14.749L10.5523 14.7748L10.5644 14.8007L10.5764 14.8264L10.5883 14.8551L10.6003 14.8807L10.6123 14.9065L10.6212 14.9323L10.6332 14.9581L10.6452 14.9838L10.6571 15.0096L10.6691 15.0383L10.6812 15.0641L10.6932 15.0898L10.7051 15.1156L10.7141 15.1414L10.7261 15.1672L10.738 15.1959L10.75 15.2216L10.762 15.2474L10.7741 15.2732L10.7859 15.299L10.798 15.3248L10.807 15.3534L10.8188 15.3792L10.8309 15.405L10.8429 15.4308L10.8548 15.4566L10.8668 15.4824L10.8788 15.511L10.8909 15.5368L10.8997 15.5626L10.9118 15.5884L10.9238 15.6142L10.9356 15.64L10.9477 15.6686L10.9597 15.6944L10.9717 15.7202L10.9836 15.746L10.9926 15.7717L11.0047 15.7975L11.0165 15.8262L11.0285 15.852L11.0405 15.8778L11.0524 15.9036L11.0644 15.9293L11.0765 15.955L11.0855 15.9836L11.0973 16.0094L11.1094 16.0352L11.1214 16.061H11.0915ZM8.46794 15.7947L8.44388 15.8119L8.42298 15.8262L8.39892 15.8434L8.37503 15.8577L8.35114 15.8749L8.32708 15.8892L8.30319 15.9036L8.27611 15.9179L8.24921 15.9322L8.2223 15.9465L8.19525 15.9578L8.16834 15.9722L8.13845 15.9836L8.11157 15.9951L8.08147 16.0065L8.0546 16.018L8.02766 16.0266L8.00061 16.0352L7.9737 16.0438L7.94381 16.0524L7.91693 16.061L7.88684 16.0667L7.85993 16.0724L7.83003 16.0782L7.79997 16.0839L7.77004 16.0868L7.73712 16.0896L7.70723 16.0925L7.67431 16.0954L7.64421 16.0982L7.61133 16.1011H7.57842H7.54547H7.51259H7.48249L7.45259 16.0982L7.41968 16.0954L7.38978 16.0925L7.35989 16.0896L7.32979 16.0868L7.29989 16.081L7.26997 16.0753L7.24309 16.0696L7.21303 16.0638L7.18612 16.0552L7.15622 16.0495L7.12915 16.0409L7.10224 16.0295L7.07533 16.0209L7.04546 16.0094L7.01839 15.9979L6.99148 15.9865L6.9646 15.975L6.93749 15.9607L6.91364 15.9465L6.88673 15.9322L6.86267 15.9179L6.83878 15.9036L6.81472 15.8863L6.79083 15.8692L6.76691 15.852L6.74587 15.8348L6.725 15.8176L6.70393 15.7975L6.68306 15.7804L6.66199 15.7603L6.64112 15.7402L6.62307 15.7202L6.60518 15.6973L6.58713 15.6772L6.5721 15.6543L6.55422 15.6314L6.53922 15.6085L6.52432 15.5855L6.50929 15.5597L6.49426 15.5368L6.48241 15.511L6.47037 15.4852L6.45836 15.4594L6.44648 15.4337L6.43745 15.4108L6.42541 15.385L6.4194 15.3592L6.41054 15.3334L6.40454 15.3048L6.39551 15.2789L6.38951 15.2503L6.38649 15.2245L6.38045 15.1959L6.37749 15.1701L6.37444 15.1414L6.37162 15.1128L6.36864 15.0841V15.0526V15.0239V15.0182V14.9896L6.37162 14.9581V14.9294L6.37444 14.9008L6.37749 14.8692L6.3835 14.8408L6.38649 14.8121L6.39249 14.7863L6.40152 14.7577L6.40756 14.729L6.41638 14.7032L6.42541 14.6746L6.43443 14.6488L6.44648 14.6201L6.45836 14.5944L6.47037 14.5686L6.48241 14.5428L6.49426 14.517L6.50929 14.4912L6.52432 14.4683L6.53922 14.4453L6.55422 14.4224L6.56928 14.3995L6.58713 14.3766L6.60518 14.3537L6.62307 14.3308L6.64112 14.3107L6.66199 14.2906L6.68004 14.2706L6.70094 14.2506L6.72198 14.2305L6.74285 14.2133L6.76691 14.1932L6.78781 14.176L6.8117 14.1588L6.83576 14.1445L6.85965 14.1273L6.88374 14.113L6.9076 14.0987L6.93451 14.0843L6.96158 14.07L6.98846 14.0557L7.01537 14.0442L7.04241 14.0328L7.07234 14.0184L7.09623 14.0099L7.12613 14.0013L7.15324 13.9898L7.18011 13.9841L7.20699 13.9755L7.23705 13.9697L7.26396 13.9611L7.29386 13.9554L7.32378 13.9525L7.35385 13.9468L7.38378 13.9439L7.41364 13.9411L7.44357 13.9382L7.47367 13.9354H7.50658H7.53648H7.56936H7.60227L7.63539 13.9382L7.66831 13.9411H7.6982L7.7281 13.9439L7.76101 13.9497L7.78809 13.9525L7.81798 13.9583L7.84791 13.964L7.87496 13.9697L7.90183 13.9755L7.92878 13.9812L7.95585 13.9898L7.98273 13.9955L8.00662 14.0041L8.0337 14.0127L8.0606 14.0242L8.08748 14.0356L8.11456 14.0471L8.14147 14.0614L8.16834 14.0729L8.19243 14.0872L8.21931 14.1015L8.2432 14.1159L8.27028 14.1302L8.29417 14.1474L8.31806 14.1617L8.34211 14.1789L8.366 14.1961L8.39006 14.2161L8.41395 14.2333L8.3959 14.2563L8.37503 14.2763L8.35698 14.2992L8.33611 14.3221L8.31806 14.3451L8.30017 14.3651L8.2791 14.388L8.26125 14.411L8.2432 14.4311L8.2223 14.454L8.20428 14.4769L8.18338 14.4998L8.16532 14.5199L8.14747 14.5428L8.12644 14.5657L8.10852 14.5886L8.08748 14.6087L8.0696 14.6316L8.04554 14.6144L8.02165 14.5944L7.99759 14.58L7.9737 14.5628L7.94981 14.5485L7.92576 14.5342L7.90183 14.5199L7.87496 14.5055L7.8509 14.4941L7.82701 14.4826L7.80295 14.474L7.77604 14.4654L7.74917 14.4568L7.72209 14.4511L7.6922 14.4453L7.6623 14.4396L7.63237 14.4368L7.59945 14.4339L7.56637 14.4311H7.53346H7.50356L7.47367 14.4339L7.44659 14.4368L7.41669 14.4425L7.38978 14.4483L7.36271 14.4568L7.33583 14.4654L7.30892 14.4769L7.28201 14.4883L7.25795 14.5026L7.2341 14.517L7.21001 14.5313L7.18914 14.5485L7.16807 14.5657L7.1472 14.5829L7.12915 14.6029L7.10827 14.623L7.09022 14.6459L7.07533 14.666L7.06029 14.6889L7.04546 14.7147L7.0304 14.7376L7.01839 14.7634L7.00936 14.7892L6.99748 14.815L6.98846 14.8436L6.98245 14.8721L6.97645 14.8979L6.97041 14.9294L6.96742 14.9581L6.9646 14.9867V15.0182V15.0239V15.0526L6.96742 15.0813L6.97041 15.107L6.97343 15.1357L6.97943 15.1615L6.98547 15.1873L6.99148 15.213L7.0005 15.2388L7.00936 15.2618L7.02141 15.2904L7.03342 15.3162L7.04828 15.342L7.06331 15.3649L7.07835 15.3878L7.09623 15.4108L7.11428 15.4308L7.13515 15.4509L7.15324 15.4709L7.17407 15.4881L7.19816 15.5053L7.22205 15.5225L7.24591 15.5368L7.26997 15.5511L7.29691 15.5626L7.32378 15.5741L7.35083 15.5855L7.38076 15.5941L7.41065 15.6027L7.44075 15.6085L7.47065 15.6142L7.50054 15.617L7.53346 15.6199H7.56637H7.60227L7.63539 15.617L7.66831 15.6142L7.6982 15.6113L7.7281 15.6056L7.75819 15.5998L7.78809 15.5913L7.81496 15.5855L7.84191 15.5741L7.86596 15.5626L7.89284 15.5511L7.91388 15.5397L7.9378 15.5253V15.4967V15.4681V15.4394V15.4108V15.3792V15.3506V15.3219V15.2933V15.2646H7.90787H7.88083H7.8509H7.821H7.79111H7.76403H7.7341H7.70421H7.67431H7.64727H7.61734H7.58744H7.55751H7.53047H7.50054V15.236V15.2102V15.1815V15.1529V15.1242V15.0984V15.0698V15.0411V15.0125V14.9867V14.9581V14.9294V14.9008V14.875V14.8465H7.53047H7.56053H7.59046H7.62033H7.65025H7.68015H7.71025H7.74014H7.77004H7.79997H7.83003H7.85993H7.88982H7.91972H7.94981H7.97974H8.00964H8.03953H8.0696H8.09953H8.12942H8.15932H8.18938H8.21931H8.24921H8.2791H8.3092H8.33909H8.36902H8.39892H8.42898H8.45888H8.48881V14.875V14.9036V14.9323V14.9581V14.9867V15.0154V15.044V15.0727V15.1013V15.1271V15.1557V15.1844V15.213V15.2417V15.2703V15.299V15.3248V15.3534V15.3821V15.4108V15.4394V15.4681V15.4967V15.5225V15.5511V15.5798V15.6085V15.6371V15.6657V15.6916V15.7202V15.7488V15.7775L8.46794 15.7947Z" fill="white"/>
<path d="M7.50479 9.25674H8.80271V8.30048H7.50479V6.34827H8.85438V5.39202H6.40261V12.2935H8.87492V11.3372H7.50479V9.25674Z" fill="white"/>
<path d="M16.8015 9.46431V11.0221C16.8015 11.2982 16.6675 11.4263 16.3895 11.4263H16.1833C15.895 11.4263 15.761 11.2982 15.761 11.0221V6.66418C15.761 6.38813 15.895 6.26004 16.1833 6.26004H16.3688C16.6469 6.26004 16.7809 6.38813 16.7809 6.66418V8.01503H17.8624V6.60503C17.8624 5.74736 17.4298 5.33324 16.5337 5.33324H15.9979C15.1019 5.33324 14.6588 5.75714 14.6588 6.61497V11.0713C14.6588 11.9292 15.1019 12.353 15.9979 12.353H16.544C17.4402 12.353 17.8831 11.9292 17.8831 11.0713V9.46431H16.8015Z" fill="white"/>
<path d="M12.9739 12.2935H14.0763V5.39198H12.9739V12.2935Z" fill="white"/>
<path d="M11.3745 8.4582C11.3745 8.73429 11.2407 8.86254 10.9625 8.86254H10.5092V6.31878H10.9625C11.2407 6.31878 11.3745 6.4469 11.3745 6.72292V8.4582ZM11.1376 5.39199H9.407V12.2935H10.5092V9.78914H11.1376C12.0338 9.78914 12.4767 9.36527 12.4767 8.50761V6.67371C12.4767 5.81588 12.0338 5.39199 11.1376 5.39199" fill="white"/>
<path fill-rule="evenodd" clip-rule="evenodd" d="M9.00285 18.5338H15.3126L12.092 19.5454L9.00285 18.5338Z" fill="white"/>
</svg>
