<svg width="24" height="24" viewBox="0 0 24 24" fill="none" xmlns="http://www.w3.org/2000/svg">
<path d="M22.6043 23.9199C23.3308 23.9199 23.92 23.3307 23.92 22.6042V1.39575C23.92 0.66892 23.3308 0.0799218 22.6043 0.0799218H1.39576C0.668931 0.0799218 0.0800171 0.66892 0.0800171 1.39575V22.6042C0.0800171 23.3307 0.668931 23.9199 1.39576 23.9199H22.6043Z" fill="#3B5998"/>
<path d="M16.5292 23.9199V14.6879H19.6281L20.0921 11.0899H16.5292V8.7928C16.5292 7.75111 16.8184 7.04126 18.3123 7.04126L20.2176 7.04037V3.8224C19.888 3.77863 18.757 3.68064 17.4413 3.68064C14.6943 3.68064 12.8138 5.35733 12.8138 8.43658V11.0899H9.70697V14.6879H12.8138V23.9199H16.5292Z" fill="white"/>
</svg>
