<svg width="24" height="24" viewBox="0 0 24 24" fill="none" xmlns="http://www.w3.org/2000/svg">
<rect width="24" height="24" rx="4" fill="#AB10E3"/>
<path fill-rule="evenodd" clip-rule="evenodd" d="M8.36334 14.0141H6.27295H6.26945C6.10517 14.0141 5.97337 14.1478 5.97337 14.3123C5.97337 14.3123 5.97401 14.3123 5.97401 14.3142H5.97337V15.8108H5.97401L5.97337 15.8121C5.97337 15.976 6.10517 16.1109 6.26945 16.1109H6.27295H6.48944H8.36334V17.1094H5.75051V17.1068C5.32295 17.1068 4.9772 16.7605 4.9772 16.3335V13.7887C4.9772 13.3639 5.32295 13.0176 5.75051 13.0176H8.36334V14.0141Z" fill="white"/>
<path fill-rule="evenodd" clip-rule="evenodd" d="M9.11932 11.2351C9.11932 11.6704 8.76816 12.0205 8.3355 12.0205H4.97483V11.0086H7.8051H7.80829C7.97511 11.0086 8.10883 10.8722 8.10883 10.706V10.7041V7.36363V7.3614C8.10883 7.19462 7.97511 7.05941 7.80829 7.05941H7.8051H6.28873H6.28554C6.11904 7.05941 5.98501 7.19462 5.98501 7.3614V7.36363V8.88159V8.8835C5.98501 9.05061 6.11904 9.18614 6.28554 9.18614H6.28873H7.50202V10.198H5.75833C5.32471 10.198 4.97483 9.84722 4.97483 9.41319V6.83203C4.97483 6.39833 5.32471 6.0469 5.75833 6.0469H8.3355C8.76816 6.0469 9.11932 6.39833 9.11932 6.83203V11.2351Z" fill="white"/>
<path fill-rule="evenodd" clip-rule="evenodd" d="M19.0222 17.1068H18.0263V14.0141H17.3297H17.3266C17.162 14.0141 17.0302 14.1478 17.0302 14.3123V14.3142V17.1068H16.0343V14.0141H15.3361H15.3342C15.1693 14.0141 15.0375 14.1478 15.0375 14.3123V14.3142V17.1094H14.042V13.7887C14.042 13.3639 14.3868 13.0176 14.8143 13.0176H19.0222V17.1068Z" fill="white"/>
<path fill-rule="evenodd" clip-rule="evenodd" d="M19.025 11.2351C19.025 11.6704 18.6735 12.0205 18.2415 12.0205H14.8805V11.0086H17.712H17.714C17.8814 11.0086 18.0158 10.8722 18.0158 10.706V10.7041V7.36363V7.3614C18.0158 7.19462 17.8814 7.05941 17.714 7.05941H17.712H16.1944H16.1915C16.0266 7.05941 15.8919 7.19462 15.8919 7.3614V7.36363V8.88159V8.8835C15.8919 9.05061 16.0266 9.18614 16.1915 9.18614H16.1944H17.4074V10.198H15.6646C15.231 10.198 14.8805 9.84722 14.8805 9.41319V6.83203C14.8805 6.39833 15.231 6.0469 15.6646 6.0469H18.2415C18.6735 6.0469 19.025 6.39833 19.025 6.83203V11.2351Z" fill="white"/>
<path fill-rule="evenodd" clip-rule="evenodd" d="M13.0594 7.36436V8.882V8.88391C13.0594 9.05102 12.9286 9.18687 12.7615 9.18687H12.7579H11.2416H11.2393C11.0722 9.18687 10.9385 9.05102 10.9385 8.88391V8.882V7.36436V7.36181C10.9385 7.19503 11.0722 7.06013 11.2393 7.06013H11.2416H12.7579H12.7615C12.9286 7.06013 13.0594 7.19503 13.0594 7.36181V7.36436ZM13.289 6.04763H10.7109C10.2779 6.04763 9.92799 6.39906 9.92799 6.83276V9.41392C9.92799 9.84762 10.2779 10.1987 10.7109 10.1987H13.289C13.7207 10.1987 14.0722 9.84762 14.0722 9.41392V6.83276C14.0722 6.39906 13.7207 6.04763 13.289 6.04763" fill="white"/>
<path fill-rule="evenodd" clip-rule="evenodd" d="M12.2487 14.3148V15.8114C12.2487 15.976 12.1169 16.1102 11.9532 16.1102C11.9517 16.1102 11.9513 16.1086 11.9497 16.1086V16.1102H10.456V16.1086C10.456 16.1086 10.4544 16.1102 10.4528 16.1102C10.2885 16.1102 10.1567 15.976 10.1567 15.8114V14.3148V14.3129C10.1567 14.1484 10.2885 14.0147 10.4528 14.0147H10.456H11.9497H11.9532C12.1169 14.0147 12.2487 14.1484 12.2487 14.3129V14.3148ZM12.4725 13.0182H9.93321C9.50565 13.0182 9.16054 13.3645 9.16054 13.7893V16.3341C9.16054 16.7611 9.50565 17.1074 9.93321 17.1074H12.4725C12.8985 17.1074 13.2442 16.7611 13.2442 16.3341V13.7893C13.2442 13.3645 12.8985 13.0182 12.4725 13.0182" fill="white"/>
<path d="M20.6174 18.8456C20.6174 19.1026 20.5139 19.3335 20.3459 19.5022C20.1778 19.6703 19.9469 19.7736 19.691 19.7736H4.30912C4.05284 19.7736 3.82234 19.6703 3.65424 19.5022C3.48614 19.3335 3.38331 19.1026 3.38268 18.8456V4.31085C3.38331 4.05413 3.48614 3.82357 3.65424 3.65487C3.82234 3.48681 4.05284 3.38349 4.30912 3.38317H19.691C19.9469 3.38349 20.1778 3.48681 20.3459 3.65487C20.5139 3.82357 20.6174 4.05413 20.6174 4.31085V18.8456ZM20.6161 3.38381C20.3799 3.14655 20.052 2.99985 19.691 2.99985H4.30912C3.94809 2.99985 3.62018 3.14655 3.38395 3.38381C3.14709 3.62043 3 3.94953 3 4.31085V18.8456C3 19.2072 3.14709 19.5363 3.38395 19.773C3.62018 20.0099 3.94809 20.1572 4.30912 20.1572H19.691C20.052 20.1572 20.3799 20.0099 20.6161 19.773C20.853 19.5363 21.0001 19.2072 21.0001 18.8456V4.31085C21.0001 3.94953 20.853 3.62043 20.6161 3.38381" fill="white"/>
</svg>
