<svg width="24" height="24" viewBox="0 0 24 24" fill="none" xmlns="http://www.w3.org/2000/svg">
<rect width="24" height="24" rx="4" fill="white"/>
<path fill-rule="evenodd" clip-rule="evenodd" d="M24 0V24H0V0H24ZM5.38 19.776L12.402 12.775L14.876 15.243L6.53 19.87C6.213 20.046 5.824 20.043 5.509 19.863L5.38 19.776V19.776ZM11.694 12.069L5 18.743V5.395L11.694 12.069ZM15.876 9.311L19.146 11.124C19.468 11.303 19.667 11.637 19.667 12C19.667 12.363 19.468 12.697 19.146 12.876L15.786 14.738L13.11 12.069L15.876 9.311V9.311ZM5.306 4.289L5.509 4.137C5.824 3.957 6.213 3.954 6.53 4.13L14.966 8.807L12.402 11.363L5.306 4.289Z" fill="#3FB6E4"/>
</svg>
