<svg width="24" height="24" viewBox="0 0 24 24" fill="none" xmlns="http://www.w3.org/2000/svg">
<rect width="24" height="24" rx="4" fill="white"/>
<path d="M0 0V24H24V0H0ZM8.667 16.667C6.086 16.667 4 14.58 4 12C4 9.42 6.086 7.333 8.667 7.333C9.927 7.333 10.98 7.793 11.794 8.553L10.527 9.773C10.18 9.44 9.573 9.053 8.667 9.053C7.074 9.053 5.774 10.373 5.774 12C5.774 13.627 7.074 14.947 8.667 14.947C10.514 14.947 11.207 13.62 11.314 12.934H8.667V11.334H13.073C13.114 11.567 13.147 11.801 13.147 12.107C13.147 14.773 11.36 16.667 8.667 16.667ZM20 12.667H18V14.667H16.667V12.667H14.667V11.334H16.667V9.334H18V11.334H20V12.667Z" fill="#D64A40"/>
</svg>
