<svg width="24" height="24" viewBox="0 0 24 24" fill="none" xmlns="http://www.w3.org/2000/svg">
<g clip-path="url(#clip0)">
<rect width="24" height="24" rx="4" fill="white"/>
<path d="M14.667 12C14.667 13.473 13.473 14.667 12 14.667C10.527 14.667 9.333 13.474 9.333 12C9.333 10.527 10.527 9.333 12 9.333C13.473 9.333 14.667 10.527 14.667 12ZM18.513 8.768C18.551 9.611 18.559 9.864 18.559 12C18.559 14.136 18.551 14.389 18.513 15.233C18.413 17.383 17.404 18.414 15.234 18.512C14.39 18.55 14.137 18.559 12 18.559C9.864 18.559 9.61 18.551 8.768 18.513C6.594 18.414 5.587 17.381 5.489 15.234C5.45 14.389 5.441 14.136 5.441 12C5.441 9.864 5.45 9.611 5.488 8.768C5.587 6.616 6.597 5.587 8.767 5.489C9.611 5.45 9.864 5.442 12 5.442C14.136 5.442 14.39 5.45 15.233 5.488C17.401 5.587 18.413 6.616 18.513 8.768ZM16.108 12C16.108 9.731 14.268 7.892 12 7.892C9.731 7.892 7.892 9.731 7.892 12C7.892 14.269 9.732 16.108 12 16.108C14.269 16.108 16.108 14.269 16.108 12ZM17.23 7.73C17.23 7.2 16.8 6.77 16.27 6.77C15.74 6.77 15.31 7.2 15.31 7.73C15.31 8.26 15.74 8.69 16.27 8.69C16.801 8.69 17.23 8.26 17.23 7.73V7.73ZM24 0V24H0V0H24ZM20 12C20 9.828 19.991 9.555 19.952 8.702C19.821 5.8 18.207 4.182 15.299 4.049C14.445 4.009 14.173 4 12 4C9.827 4 9.556 4.009 8.702 4.048C5.796 4.181 4.182 5.793 4.048 8.701C4.009 9.555 4 9.828 4 12C4 14.173 4.009 14.445 4.048 15.298C4.182 18.204 5.794 19.819 8.702 19.952C9.556 19.991 9.827 20 12 20C14.173 20 14.445 19.991 15.299 19.952C18.201 19.819 19.821 18.207 19.952 15.298C19.991 14.445 20 14.173 20 12V12Z" fill="#E5485F"/>
</g>
<defs>
<clipPath id="clip0">
<rect width="24" height="24" rx="4" fill="white"/>
</clipPath>
</defs>
</svg>
