<svg width="24" height="24" viewBox="0 0 24 24" fill="none" xmlns="http://www.w3.org/2000/svg">
<rect width="24" height="24" rx="4" fill="#FA5C5C"/>
<path d="M4.60748 3.11132C3.73509 3.62953 2.0163 5.60496 2 6.12302V6.98054C2 8.06754 3.0156 9.02292 3.93772 9.02292C5.04494 9.02292 5.96746 8.10488 5.96754 7.01528C5.96754 8.10488 6.85844 9.02292 7.96574 9.02292C9.07313 9.02292 9.93541 8.10488 9.93541 7.01528C9.93541 8.10488 10.8827 9.02292 11.99 9.02292H12.0101C13.1174 9.02292 14.0647 8.10488 14.0647 7.01528C14.0647 8.10488 14.9271 9.02292 16.0343 9.02292C17.1416 9.02292 18.0325 8.10488 18.0325 7.01528C18.0325 8.10488 18.9552 9.02292 20.0624 9.02292C20.9845 9.02292 22.0001 8.0677 22.0001 6.98054V6.12302C21.9838 5.60488 20.265 3.62937 19.3928 3.11132C16.6813 3.01607 14.8015 2.9996 12 3.00001C9.19849 3.00025 5.37913 3.04404 4.60732 3.11132H4.60748ZM9.92139 8.51098C9.81552 8.69562 9.68438 8.86455 9.53178 9.01289C9.1138 9.42175 8.54087 9.6752 7.90926 9.6752C7.30147 9.67577 6.71769 9.43786 6.28331 9.01256C6.13187 8.86415 6.01677 8.70546 5.91138 8.52068L5.91089 8.52101C5.80558 8.70612 5.65887 8.86472 5.5071 9.01329C5.07255 9.43828 4.48884 9.67598 3.88115 9.67544C3.80502 9.67544 3.72579 9.6544 3.66173 9.63238C3.57272 10.5597 3.53514 11.4459 3.52186 12.0921L3.5217 12.0958C3.52007 12.4239 3.51844 12.6937 3.5168 13.0686C3.53392 15.0143 3.3242 19.3748 4.37428 20.4462C6.00153 20.8258 8.99585 20.9987 11.9999 20.9997H12.0004C15.0043 20.9987 17.9986 20.8258 19.6259 20.4462C20.676 19.3747 20.4662 15.0142 20.4834 13.0685C20.4816 12.6937 20.4801 12.4239 20.4785 12.0957L20.4782 12.092C20.465 11.4457 20.4274 10.5595 20.3384 9.63222C20.2744 9.65424 20.1952 9.67528 20.119 9.67528C19.5113 9.67582 18.9276 9.43811 18.4931 9.01313C18.3413 8.86456 18.1946 8.70603 18.0892 8.52084L18.0887 8.52052C17.9832 8.7053 17.8682 8.86407 17.7168 9.0124C17.2824 9.43766 16.6987 9.67554 16.0909 9.67495C15.4594 9.67495 14.8864 9.42135 14.4684 9.01256C14.3158 8.86423 14.1846 8.69529 14.0788 8.51065C13.974 8.69509 13.8441 8.86402 13.6927 9.01256C13.2583 9.43778 12.6744 9.67562 12.0666 9.67503C12.0446 9.67503 12.0226 9.67405 12.0006 9.6734H12C11.978 9.67405 11.956 9.67503 11.9338 9.67503C11.326 9.67564 10.7422 9.43783 10.3077 9.01264C10.1563 8.8641 10.0264 8.69517 9.92164 8.51073L9.92139 8.51098ZM8.25159 10.6711L8.25143 10.6719H8.25265C8.91394 10.6733 9.50137 10.6719 10.2293 11.4667C10.8021 11.4066 11.4007 11.3765 11.9998 11.3774H12.0003C12.5994 11.3766 13.198 11.4066 13.7709 11.4667C14.4988 10.6718 15.0862 10.6732 15.7475 10.6719H15.7486L15.7485 10.6711C16.0609 10.6711 17.3107 10.6711 18.1815 13.118L19.1169 16.4748C19.8101 18.9721 18.895 19.0331 17.7535 19.0353C16.0607 18.9723 15.1235 17.7424 15.1235 16.5127C14.1864 16.6664 13.0933 16.7432 12.0002 16.7433H11.9997C10.9065 16.7433 9.81339 16.6664 8.87644 16.5127C8.87644 17.7424 7.93909 18.9723 6.24639 19.0353C5.10493 19.0331 4.18991 18.9721 4.88306 16.4748L5.81871 13.1181C6.68955 10.6712 7.93933 10.6712 8.25176 10.6712L8.25159 10.6711ZM11.9998 12.5941V12.5946C11.9982 12.5962 10.2178 14.232 9.89767 14.8138L11.0636 14.7671V15.7843C11.0636 15.8319 11.5314 15.8125 11.9998 15.7908H12.0003C12.4685 15.8125 12.9364 15.8319 12.9364 15.7843V14.7671L14.1023 14.8138C13.7822 14.232 12.0002 12.5946 12.0002 12.5946V12.5941L12 12.5943L11.9998 12.5941Z" fill="white"/>
</svg>
