<svg width="24" height="24" viewBox="0 0 24 24" fill="none" xmlns="http://www.w3.org/2000/svg">
<rect width="24" height="24" rx="4" fill="white"/>
<path d="M0 0V24H24V0H0ZM12 20C11.175 20 10.38 19.875 9.631 19.643C9.957 19.112 10.444 18.241 10.625 17.545L11.124 15.644C11.385 16.142 12.147 16.562 12.957 16.562C15.37 16.562 17.108 14.343 17.108 11.586C17.108 8.943 14.951 6.966 12.176 6.966C8.724 6.966 6.89 9.283 6.89 11.807C6.89 12.981 7.515 14.441 8.514 14.907C8.665 14.977 8.746 14.946 8.782 14.8L9.004 13.893C9.023 13.812 9.014 13.743 8.948 13.663C8.617 13.263 8.353 12.525 8.353 11.838C8.353 10.073 9.689 8.366 11.965 8.366C13.93 8.366 15.306 9.705 15.306 11.621C15.306 13.785 14.213 15.284 12.791 15.284C12.005 15.284 11.417 14.635 11.606 13.838C11.832 12.887 12.269 11.861 12.269 11.174C12.269 10.56 11.939 10.047 11.257 10.047C10.454 10.047 9.809 10.878 9.809 11.99C9.809 12.699 10.048 13.178 10.048 13.178C10.048 13.178 9.255 16.531 9.11 17.155C8.949 17.846 9.012 18.817 9.082 19.449C6.108 18.284 4 15.389 4 12C4 7.582 7.582 4 12 4C16.418 4 20 7.582 20 12C20 16.418 16.418 20 12 20Z" fill="#B7091B"/>
</svg>
