<svg width="24" height="24" viewBox="0 0 24 24" fill="none" xmlns="http://www.w3.org/2000/svg">
<rect width="24" height="24" rx="4" fill="white"/>
<path d="M14.558 15.827C14.655 15.923 14.655 16.08 14.558 16.176C14.027 16.705 13.193 16.962 12.009 16.962L12 16.96L11.991 16.962C10.806 16.962 9.973 16.705 9.442 16.176C9.345 16.08 9.345 15.923 9.442 15.827C9.538 15.731 9.696 15.731 9.793 15.827C10.226 16.258 10.945 16.468 11.992 16.468L12.001 16.47L12.01 16.468C13.056 16.468 13.775 16.258 14.209 15.827C14.304 15.73 14.461 15.73 14.558 15.827V15.827ZM14.432 12.013C13.851 12.013 13.378 12.484 13.378 13.063C13.378 13.642 13.851 14.112 14.432 14.112C15.013 14.112 15.486 13.641 15.486 13.063C15.486 12.484 15.013 12.013 14.432 12.013ZM24 0V24H0V0H24ZM20 11.853C20 10.881 19.205 10.089 18.228 10.089C17.751 10.089 17.32 10.28 17.001 10.586C15.794 9.792 14.161 9.287 12.354 9.222L13.343 6.109L16.02 6.737L16.016 6.776C16.016 7.571 16.666 8.218 17.465 8.218C18.263 8.218 18.913 7.571 18.913 6.776C18.913 5.981 18.263 5.334 17.465 5.334C16.852 5.334 16.329 5.717 16.118 6.253L13.232 5.577C13.106 5.546 12.978 5.619 12.939 5.743L11.836 9.214C9.944 9.237 8.23 9.746 6.969 10.564C6.653 10.272 6.233 10.09 5.769 10.09C4.794 10.089 4 10.88 4 11.853C4 12.5 4.355 13.06 4.878 13.367C4.844 13.555 4.821 13.745 4.821 13.939C4.821 16.546 8.027 18.667 11.967 18.667C15.908 18.667 19.113 16.546 19.113 13.939C19.113 13.756 19.094 13.577 19.063 13.399C19.618 13.1 20 12.523 20 11.853V11.853ZM10.626 13.063C10.626 12.484 10.153 12.013 9.572 12.013C8.991 12.013 8.517 12.484 8.517 13.063C8.517 13.642 8.99 14.112 9.572 14.112C10.153 14.113 10.626 13.642 10.626 13.063Z" fill="#F74201"/>
</svg>
