<svg width="24" height="24" viewBox="0 0 24 24" fill="none" xmlns="http://www.w3.org/2000/svg">
<rect width="24" height="24" rx="4" fill="white"/>
<path d="M0 0V24H24V0H0ZM4.667 15.524C4.262 15.159 4 14.621 4 14.012C4 13.404 4.262 12.866 4.667 12.5V15.524V15.524ZM6 16C5.757 16 5.631 16.003 5.333 15.908V12.116C5.649 12.015 5.798 12.019 6 12.035V16ZM7.333 16H6.667V12.222L6.873 12.343C6.964 11.968 7.126 11.625 7.334 11.32V16H7.333ZM8.667 16H8V10.622C8.206 10.468 8.426 10.336 8.667 10.245V16ZM10 16H9.333V10.095C9.584 10.068 9.661 10.049 10 10.101V16ZM11.333 16H10.666V10.3L10.919 10.423C11.038 10.216 11.18 10.028 11.333 9.851V16ZM18.06 16H12V9.252C12.532 8.886 13.16 8.667 13.841 8.667C15.65 8.667 17.116 10.161 17.252 12.053C18.554 11.415 20 12.44 20 13.929C20 15.072 19.131 16 18.06 16V16Z" fill="#F06A0E"/>
</svg>
