<svg width="24" height="24" viewBox="0 0 24 24" fill="none" xmlns="http://www.w3.org/2000/svg">
<path d="M19.6 23.5999H4.40001C2.20002 23.5999 0.400024 21.7999 0.400024 19.5999V4.39989C0.400024 2.1999 2.20002 0.399902 4.40001 0.399902H19.6C21.8 0.399902 23.6 2.1999 23.6 4.39989V19.5999C23.6 21.7999 21.8 23.5999 19.6 23.5999Z" fill="black"/>
<path d="M19.6 24H4.40002C1.95998 24 0 22.04 0 19.6V4.40002C0 1.95998 1.95998 0 4.40002 0H19.6C22.04 0 24 1.95998 24 4.40002V19.6C24 22.04 22.04 24 19.6 24ZM4.40002 0.800016C2.4 0.800016 0.800016 2.4 0.800016 4.40002V19.6C0.800016 21.6 2.4 23.2 4.40002 23.2H19.6C21.6 23.2 23.2 21.6 23.2 19.6V4.40002C23.2 2.4 21.6 0.800016 19.6 0.800016H4.40002V0.800016Z" fill="black"/>
<path d="M17.2 13.5997C14.32 13.5997 12 11.2797 12 8.39969C12 5.51969 14.32 3.19971 17.2 3.19971C20.08 3.19971 22.4 5.51969 22.4 8.39969C22.4 11.2797 20.08 13.5997 17.2 13.5997Z" fill="white"/>
<path d="M17.2 11.5997C15.44 11.5997 14 10.1597 14 8.39972C14 6.63971 15.44 5.19971 17.2 5.19971C18.96 5.19971 20.4 6.63971 20.4 8.39972C20.4 10.1597 18.96 11.5997 17.2 11.5997ZM17.2 5.99972C15.88 5.99972 14.8 7.07972 14.8 8.39972C14.8 9.71972 15.88 10.7997 17.2 10.7997C18.52 10.7997 19.6 9.71972 19.6 8.39972C19.6 7.07972 18.52 5.99972 17.2 5.99972Z" fill="black"/>
<path d="M8.79998 19.5999C7.63996 19.5999 6.63998 18.8799 6.19996 17.7999L5.87994 16.9599L7.43994 17.5599C8.11996 17.7999 8.87994 17.5199 9.11994 16.8799C9.35994 16.2399 8.95996 15.5199 8.27994 15.2799L6.79996 14.6399L7.59997 14.2399C7.95997 14.08 8.35996 13.96 8.79998 13.96C10.36 13.96 11.6 15.1999 11.6 16.7599C11.6 18.3199 10.36 19.5999 8.79998 19.5999ZM7.64001 18.3999C7.96002 18.6399 8.36001 18.7999 8.80002 18.7999C9.92001 18.7999 10.8 17.9199 10.8 16.7999C10.8 15.7999 10.08 14.9599 9.12004 14.8399C9.84004 15.3999 10.1601 16.3199 9.88002 17.1599C9.56001 18.0399 8.60001 18.5199 7.64001 18.3999Z" fill="black"/>
<path d="M9.12 11.6C11.72 11.76 13.84 13.8401 14 16.4801L18.32 13.4401C18 13.5201 17.64 13.5601 17.28 13.5601C14.4 13.5601 12.08 11.2401 12.08 8.36009C12.08 7.92008 12.16 7.48011 12.24 7.08008L9.12 11.6Z" fill="white"/>
<path d="M8.79998 12.3999C7.83998 12.3999 7.03996 12.6399 6.31996 13.1599L8.67998 14.1599C9.96 14.6399 10.68 16.0399 10.2 17.2799C9.84 18.2399 8.96001 18.8399 7.88001 18.8399C7.56 18.8399 7.28001 18.7999 6.96 18.6799L4.47998 17.6799C4.99996 19.6399 6.72 21.1999 8.79998 21.1999C11.24 21.1999 13.2 19.2399 13.2 16.7999C13.2 14.3598 11.24 12.3999 8.79998 12.3999Z" fill="white"/>
<path d="M1.59998 12L8.39999 14.88C9.32001 15.24 9.80001 16.16 9.47999 17C9.15998 17.84 8.19998 18.24 7.28001 17.92L1.60002 15.64V12H1.59998Z" fill="white"/>
</svg>
