<svg width="24" height="24" viewBox="0 0 24 24" fill="none" xmlns="http://www.w3.org/2000/svg">
<rect width="24" height="24" rx="4" fill="white"/>
<path d="M16.586 16.461L17.25 18.428L17.234 18.498C16.734 18.978 15.531 19.335 14.548 19.352L14.438 19.353C11.206 19.353 10.65 16.885 10.65 15.427V10.735L10.584 10.668H8.729L8.662 10.601L8.646 8.56L8.688 8.498C10.358 7.848 11.292 6.768 11.537 4.769C11.551 4.658 11.642 4.655 11.643 4.655H13.941L14.008 4.722V7.933L14.076 8H16.611L16.678 8.067V10.601L16.611 10.668H14.065L14.001 10.735V15.205C14.017 16.164 14.478 16.65 15.377 16.65C15.74 16.65 16.121 16.566 16.501 16.421L16.586 16.461V16.461ZM24 0V24H0V0H24ZM18 18.601L17.008 15.66L16.944 15.614H14.761C14.658 15.614 14.654 15.302 14.653 15.2V11.39L14.72 11.323H17.266L17.333 11.256V7.412L17.266 7.345H14.731L14.664 7.278V4.067L14.597 4H9.831C9.505 4 9.129 4.242 9.074 4.689C8.847 6.541 7.82 7.439 6.224 7.973L6.045 8.032L6 8.096V11.256L6.067 11.323H8V15.427C8 18.534 10.027 20 14.005 20C15.606 20 17.37 19.43 17.895 18.739L18 18.601Z" fill="#2F4055"/>
</svg>
