<svg width="24" height="24" viewBox="0 0 24 24" fill="none" xmlns="http://www.w3.org/2000/svg">
<rect width="24" height="24" rx="4" fill="white"/>
<path d="M0 0V24H24V0H0ZM18.862 9.237C19.07 13.854 15.627 19.002 9.532 19.002C7.678 19.002 5.953 18.459 4.5 17.527C6.242 17.732 7.98 17.249 9.36 16.168C7.923 16.141 6.711 15.192 6.294 13.888C6.809 13.986 7.315 13.957 7.776 13.832C6.197 13.515 5.108 12.093 5.143 10.572C5.585 10.818 6.092 10.966 6.629 10.983C5.168 10.006 4.754 8.076 5.613 6.6C7.232 8.586 9.651 9.893 12.379 10.03C11.9 7.977 13.458 6 15.577 6C16.521 6 17.374 6.398 17.973 7.037C18.721 6.89 19.424 6.617 20.058 6.241C19.813 7.008 19.292 7.651 18.615 8.057C19.279 7.977 19.912 7.801 20.5 7.54C20.06 8.196 19.503 8.774 18.862 9.237V9.237Z" fill="#1E9CEA"/>
</svg>
