<svg width="24" height="24" viewBox="0 0 24 24" fill="none" xmlns="http://www.w3.org/2000/svg">
<rect width="24" height="24" rx="4" fill="black"/>
<path d="M22.3277 6.01376L18.4669 6.00197C18.4669 6.14153 18.465 6.30862 18.463 6.4187C18.7905 6.42657 19.6309 6.5799 19.8933 7.26791L16.1962 15.7757C16.0147 15.353 14.2944 11.5454 14.0991 11.0559L15.8865 7.35833C16.2554 6.79613 16.9617 6.43246 17.6443 6.40691L17.6423 6.01966L13.9275 6.01573C13.9196 6.11401 13.9275 6.32042 13.9137 6.42264C14.9612 6.45016 15.3361 6.68408 15.0855 7.30919C14.6712 8.24685 13.8012 10.0259 13.6315 10.3502C13.1009 9.24348 12.7615 8.39035 12.1835 7.19321C11.9329 6.63887 12.4853 6.42264 13.0673 6.40691V6.01769L8.76459 6.00393C8.76853 6.18675 8.76064 6.28896 8.76064 6.42264C9.36038 6.43246 10.1377 6.49537 10.4494 7.01629C10.8617 7.81439 12.2328 10.9832 12.6471 11.8324C12.1184 12.8447 10.8321 15.239 10.3705 16.1374C9.71154 14.6788 7.26919 8.93093 6.58067 7.44679C6.32421 6.81382 7.31654 6.45016 7.89063 6.42264L7.89457 6H3C3 6.12777 3.00592 6.33614 3.00592 6.4305C3.79899 6.42264 4.95901 7.72199 5.29045 8.52992C6.71877 11.8324 8.19247 15.1171 9.61487 18.4216C9.61487 18.4275 10.0588 18.4334 10.0647 18.4235C10.9939 16.5266 12.0809 14.5333 13.0634 12.6167L15.5393 18.4255C15.5393 18.4255 15.9496 18.4294 15.9516 18.4275C17.5219 14.8518 19.8736 9.36536 20.643 7.63354C20.9566 6.89442 21.4794 6.44229 22.3277 6.41674L22.3337 6.03145L22.3277 6.01376Z" fill="white"/>
</svg>
