<svg width="24" height="24" viewBox="0 0 24 24" fill="none" xmlns="http://www.w3.org/2000/svg">
<rect width="24" height="24" rx="4" fill="#08D7D7"/>
<path fill-rule="evenodd" clip-rule="evenodd" d="M11.2548 16.1024C11.2548 16.2525 11.2174 16.4657 11.042 16.6284L10.3855 17.1789L4.41503 11.706V9.55859L10.9802 15.5772C11.083 15.6718 11.2556 15.8668 11.2556 16.1031L11.2548 16.1024ZM20.3482 9.71568V11.7074L12.9202 18.698C12.7965 18.8116 12.6736 18.8628 12.519 18.8628C12.3608 18.8628 12.2206 18.8067 12.1019 18.6966L11.4224 18.0977L20.3482 9.71498V9.71568ZM14.6891 13.2643L12.6304 15.1746L6.10845 9.12238C5.77983 8.81801 5.60006 8.41196 5.60006 7.97715C5.60006 7.54374 5.77983 7.13769 6.10629 6.83402L8.16643 4.92157L14.6884 10.9752C15.3694 11.6064 15.3694 12.6324 14.6884 13.2636L14.6891 13.2643ZM13.4739 7.99188L15.6203 6.00017C15.9497 5.69581 16.3876 5.5282 16.8535 5.5282C17.3209 5.5282 17.7581 5.69651 18.0867 6.00158L20.3015 8.0564L16.9233 11.1912L15.6901 10.0481L13.4753 7.99188H13.4739ZM21.7217 7.67489L16.8708 3.09538L16.7701 3L16.6695 3.09398L12.4327 7.06335L8.64605 3.53089L8.64108 3.526L8.63753 3.52391L8.16295 3.15222L8.06515 3.07508L7.97311 3.15923L3.04315 7.66651L3 7.70578V12.2502L3.04173 12.2888L12.2854 20.8622L12.3861 20.9562L12.4867 20.8629L21.7218 12.2895L21.7627 12.2509V7.71279L21.7225 7.67492L21.7217 7.67489Z" fill="white"/>
</svg>
